<svg width="39" height="39" viewBox="0 0 39 39" fill="none" xmlns="http://www.w3.org/2000/svg">
<g clip-path="url(#clip0_3_20)">
<path d="M26.8125 14.625C26.8125 16.5644 26.0421 18.4244 24.6707 19.7957C23.2994 21.1671 21.4394 21.9375 19.5 21.9375C17.5606 21.9375 15.7006 21.1671 14.3293 19.7957C12.9579 18.4244 12.1875 16.5644 12.1875 14.625C12.1875 12.6856 12.9579 10.8256 14.3293 9.45428C15.7006 8.08292 17.5606 7.3125 19.5 7.3125C21.4394 7.3125 23.2994 8.08292 24.6707 9.45428C26.0421 10.8256 26.8125 12.6856 26.8125 14.625Z" fill="black"/>
<path d="M4.875 0C3.58207 0 2.34209 0.513615 1.42785 1.42785C0.513615 2.34209 0 3.58207 0 4.875L0 34.125C0 35.4179 0.513615 36.6579 1.42785 37.5721C2.34209 38.4864 3.58207 39 4.875 39H34.125C35.4179 39 36.6579 38.4864 37.5721 37.5721C38.4864 36.6579 39 35.4179 39 34.125V4.875C39 3.58207 38.4864 2.34209 37.5721 1.42785C36.6579 0.513615 35.4179 0 34.125 0L4.875 0ZM34.125 2.4375C34.7715 2.4375 35.3915 2.69431 35.8486 3.15143C36.3057 3.60855 36.5625 4.22853 36.5625 4.875V34.125C36.5625 34.7715 36.3057 35.3915 35.8486 35.8486C35.3915 36.3057 34.7715 36.5625 34.125 36.5625V34.125C34.125 31.6875 31.6875 24.375 19.5 24.375C7.3125 24.375 4.875 31.6875 4.875 34.125V36.5625C4.22853 36.5625 3.60855 36.3057 3.15143 35.8486C2.69431 35.3915 2.4375 34.7715 2.4375 34.125V4.875C2.4375 4.22853 2.69431 3.60855 3.15143 3.15143C3.60855 2.69431 4.22853 2.4375 4.875 2.4375H34.125Z" fill="black"/>
</g>
<defs>
<clipPath id="clip0_3_20">
<rect width="39" height="39" fill="white"/>
</clipPath>
</defs>
</svg>
