<svg width="39" height="39" viewBox="0 0 39 39" fill="none" xmlns="http://www.w3.org/2000/svg">
<path d="M15 37.6072V27.8439C15 27.1615 15.75 26.4651 16.5 26.4651H22.5C23.25 26.4651 24 27.1615 24 27.8579V37.6072C24 37.9766 24.158 38.3309 24.4393 38.5921C24.7206 38.8533 25.1022 39 25.5 39H37.5C37.8978 39 38.2794 38.8533 38.5607 38.5921C38.842 38.3309 39 37.9766 39 37.6072V18.1085C39.0003 17.9255 38.9618 17.7442 38.8867 17.575C38.8115 17.4058 38.7012 17.252 38.562 17.1224L34.5 13.3536V4.18079C34.5 3.81141 34.342 3.45715 34.0607 3.19596C33.7794 2.93476 33.3978 2.78803 33 2.78803H30C29.6022 2.78803 29.2206 2.93476 28.9393 3.19596C28.658 3.45715 28.5 3.81141 28.5 4.18079V7.78249L20.562 0.409178C20.4227 0.279474 20.2571 0.176569 20.0749 0.106355C19.8927 0.0361418 19.6973 0 19.5 0C19.3027 0 19.1073 0.0361418 18.9251 0.106355C18.7429 0.176569 18.5773 0.279474 18.438 0.409178L0.438002 17.1224C0.298797 17.252 0.188463 17.4058 0.113307 17.575C0.0381524 17.7442 -0.000349649 17.9255 2.39249e-06 18.1085V37.6072C2.39249e-06 37.9766 0.158038 38.3309 0.439342 38.5921C0.720647 38.8533 1.10218 39 1.5 39H13.5C13.8978 39 14.2794 38.8533 14.5607 38.5921C14.842 38.3309 15 37.9766 15 37.6072Z" fill="#D9D9D9"/>
</svg>