<svg width="39" height="39" viewBox="0 0 39 39" fill="none" xmlns="http://www.w3.org/2000/svg">
<path d="M19.5 36.5625C14.9747 36.5625 10.6348 34.7648 7.43499 31.565C4.23515 28.3652 2.4375 24.0253 2.4375 19.5C2.4375 14.9747 4.23515 10.6348 7.43499 7.43499C10.6348 4.23515 14.9747 2.4375 19.5 2.4375C24.0253 2.4375 28.3652 4.23515 31.565 7.43499C34.7648 10.6348 36.5625 14.9747 36.5625 19.5C36.5625 24.0253 34.7648 28.3652 31.565 31.565C28.3652 34.7648 24.0253 36.5625 19.5 36.5625ZM19.5 39C24.6717 39 29.6316 36.9455 33.2886 33.2886C36.9455 29.6316 39 24.6717 39 19.5C39 14.3283 36.9455 9.36838 33.2886 5.71142C29.6316 2.05446 24.6717 0 19.5 0C14.3283 0 9.36838 2.05446 5.71142 5.71142C2.05446 9.36838 0 14.3283 0 19.5C0 24.6717 2.05446 29.6316 5.71142 33.2886C9.36838 36.9455 14.3283 39 19.5 39Z" fill="#D9D9D9"/>
<path d="M19.5 9.75C19.8232 9.75 20.1332 9.8784 20.3618 10.107C20.5903 10.3355 20.7188 10.6455 20.7188 10.9688V18.2812H28.0312C28.3545 18.2812 28.6645 18.4097 28.893 18.6382C29.1216 18.8668 29.25 19.1768 29.25 19.5C29.25 19.8232 29.1216 20.1332 28.893 20.3618C28.6645 20.5903 28.3545 20.7188 28.0312 20.7188H20.7188V28.0312C20.7188 28.3545 20.5903 28.6645 20.3618 28.893C20.1332 29.1216 19.8232 29.25 19.5 29.25C19.1768 29.25 18.8668 29.1216 18.6382 28.893C18.4097 28.6645 18.2812 28.3545 18.2812 28.0312V20.7188H10.9688C10.6455 20.7188 10.3355 20.5903 10.107 20.3618C9.8784 20.1332 9.75 19.8232 9.75 19.5C9.75 19.1768 9.8784 18.8668 10.107 18.6382C10.3355 18.4097 10.6455 18.2812 10.9688 18.2812H18.2812V10.9688C18.2812 10.6455 18.4097 10.3355 18.6382 10.107C18.8668 9.8784 19.1768 9.75 19.5 9.75Z" fill="#D9D9D9"/>
</svg>