<svg width="39" height="39" viewBox="0 0 39 39" fill="none" xmlns="http://www.w3.org/2000/svg">
<path d="M29.5815 0.121815C30.1203 -0.0284218 30.6828 -0.0398474 31.2262 0.0884058C31.7696 0.216659 32.2796 0.481219 32.7175 0.862003C33.1555 1.24279 33.5099 1.72978 33.7537 2.28602C33.9976 2.84226 34.1246 3.45312 34.125 4.07223V7.38688H35.3438C36.3134 7.38688 37.2434 7.81625 37.9291 8.58053C38.6148 9.34482 39 10.3814 39 11.4623V35.9146C39 36.9955 38.6148 38.0321 37.9291 38.7963C37.2434 39.5606 36.3134 39.99 35.3438 39.99H3.65625C2.68655 39.99 1.75657 39.5606 1.07089 38.7963C0.385211 38.0321 2.39098e-07 36.9955 2.39098e-07 35.9146V11.4623C-0.000339935 10.4131 0.362316 9.40428 1.01248 8.64567C1.66265 7.88706 2.55024 7.43716 3.4905 7.38959L29.5815 0.121815ZM13.5574 7.38688H31.6875V4.07223C31.6871 3.86611 31.6446 3.6628 31.5632 3.4777C31.4819 3.2926 31.3638 3.13056 31.218 3.00385C31.0721 2.87714 30.9023 2.78909 30.7214 2.74636C30.5405 2.70364 30.3532 2.70735 30.1738 2.75723L13.5574 7.38688ZM3.65625 10.1038C3.33302 10.1038 3.02302 10.2469 2.79446 10.5017C2.5659 10.7565 2.4375 11.102 2.4375 11.4623V35.9146C2.4375 36.2749 2.5659 36.6204 2.79446 36.8752C3.02302 37.13 3.33302 37.2731 3.65625 37.2731H35.3438C35.667 37.2731 35.977 37.13 36.2055 36.8752C36.4341 36.6204 36.5625 36.2749 36.5625 35.9146V11.4623C36.5625 11.102 36.4341 10.7565 36.2055 10.5017C35.977 10.2469 35.667 10.1038 35.3438 10.1038H3.65625Z" fill="#E9D8DA"/>
</svg>
